/* XPM */
static char * bits_xpm[] = {
"11 23 2 1",
" 	c #ffffff",
".	c #000000",
"  .........",
"  .    .   ",
"  .    .   ",
"  .    .   ",
"   ....    ",
"           ",
"           ",
"  .    .   ",
"  ...... . ",
"  .        ",
"           ",
"           ",
"       .   ",
"   ....... ",
"  .    .   ",
"  .    .   ",
"   .       ",
"           ",
"   .  .    ",
"  .  . .   ",
"  .  . .   ",
"  . .  .   ",
"   .  .    "};
