/* XPM */
static char * bytes_xpm[] = {
"11 29 2 1",
" 	c None",
".	c #000000",
"  .........",
"  .    .   ",
"  .    .   ",
"  .    .   ",
"   ....    ",
"           ",
" .  ....   ",
".  .       ",
".  .       ",
".   .      ",
" .......   ",
"           ",
"       .   ",
"   ....... ",
"  .    .   ",
"  .    .   ",
"   .       ",
"           ",
"   ....    ",
"  .  . .   ",
"  .  . .   ",
"  .  . .   ",
"   . ..    ",
"           ",
"   .  .    ",
"  .  . .   ",
"  .  . .   ",
"  . .  .   ",
"   .  .    "};
