/* XPM */
static char * percent_xpm[] = {
"11 41 2 1",
" 	c None",
".	c #000000",
"........   ",
"   .   .   ",
"   .   .   ",
"   .   .   ",
"    ...    ",
"           ",
"   ....    ",
"  .  . .   ",
"  .  . .   ",
"  .  . .   ",
"   . ..    ",
"           ",
"  ......   ",
"      .    ",
"       .   ",
"       .   ",
"      .    ",
"           ",
"   ....    ",
"  .    .   ",
"  .    .   ",
"  .    .   ",
"   .  .    ",
"           ",
"   ....    ",
"  .  . .   ",
"  .  . .   ",
"  .  . .   ",
"   . ..    ",
"           ",
"  ......   ",
"      .    ",
"       .   ",
"       .   ",
"  .....    ",
"           ",
"       .   ",
"   ....... ",
"  .    .   ",
"  .    .   ",
"   .       "};
