/* XPM */
static char * reqs_xpm[] = {
"11 23 3 1",
" 	c None",
".	c #FFFFFF",
"+	c #000000",
"...+++++...",
"......+....",
".......+...",
".......+...",
"......+....",
"...........",
"....+++....",
"...+.+.+...",
"...+.+.+...",
"...+.+.+...",
"......+....",
"...........",
"....+++....",
"...+...+...",
"...+...+...",
"...+...+...",
".+++++++...",
"...........",
"...+..+....",
"...+.+.+...",
"...+.+.+...",
"...+.+.+...",
"....+..+..."};
