/* XPM */
static char * usec_xpm[] = {
"11 71 2 1",
" 	c None",
".	c #000000",
"  ......   ",
"       .   ",
"   ....    ",
"       .   ",
"  .....    ",
"           ",
"           ",
"  .    .   ",
"  ...... . ",
"  .        ",
"           ",
"           ",
"   ....    ",
"  .    .   ",
"  .    .   ",
"  .    .   ",
"   .  .    ",
"           ",
"  ......   ",
"      .    ",
"       .   ",
"       .   ",
"      .    ",
"           ",
"   ....    ",
"  .    .   ",
"  .    .   ",
"  .    .   ",
"   ....    ",
"           ",
"   .  .    ",
"  .  . .   ",
"  .  . .   ",
"  . .  .   ",
"   .  .    ",
"           ",
"   ....    ",
"  .  . .   ",
"  .  . .   ",
"  .  . .   ",
"   . ..    ",
"           ",
"   ....    ",
"  .    .   ",
"  .    .   ",
"  .    .   ",
"   .  .    ",
"           ",
"   ....    ",
"  .    .   ",
"  .    .   ",
"  .    .   ",
"   ....    ",
"           ",
"  ......   ",
"      .    ",
"       .   ",
"       .   ",
"  .....    ",
"           ",
"   ....    ",
"  .    .   ",
"  .    .   ",
"  .    .   ",
"  .........",
"           ",
"   .  .    ",
"  .  . .   ",
"  .  . .   ",
"  . .  .   ",
"   .  .    "};
